<svg xmlns="http://www.w3.org/2000/svg" xmlns:xlink="http://www.w3.org/1999/xlink" width="239.001" height="182" viewBox="0 0 239.001 182">
  <defs>
    <filter id="Union_29" x="0" y="3" width="239.001" height="179" filterUnits="userSpaceOnUse">
      <feOffset dy="10" input="SourceAlpha"/>
      <feGaussianBlur stdDeviation="11" result="blur"/>
      <feFlood flood-opacity="0.102"/>
      <feComposite operator="in" in2="blur"/>
      <feComposite in="SourceGraphic"/>
    </filter>
    <filter id="Sign_out" x="16.501" y="74" width="124" height="86" filterUnits="userSpaceOnUse">
      <feOffset input="SourceAlpha"/>
      <feGaussianBlur stdDeviation="11" result="blur-2"/>
      <feFlood flood-opacity="0.161"/>
      <feComposite operator="in" in2="blur-2"/>
      <feComposite in="SourceGraphic"/>
    </filter>
    <filter id="Change_password" x="15.501" y="40" width="196" height="86" filterUnits="userSpaceOnUse">
      <feOffset input="SourceAlpha"/>
      <feGaussianBlur stdDeviation="11" result="blur-3"/>
      <feFlood flood-opacity="0.161"/>
      <feComposite operator="in" in2="blur-3"/>
      <feComposite in="SourceGraphic"/>
    </filter>
    <filter id="Profile" x="16.501" y="11" width="110" height="86" filterUnits="userSpaceOnUse">
      <feOffset input="SourceAlpha"/>
      <feGaussianBlur stdDeviation="11" result="blur-4"/>
      <feFlood flood-opacity="0.161"/>
      <feComposite operator="in" in2="blur-4"/>
      <feComposite in="SourceGraphic"/>
    </filter>
  </defs>
  <g id="Iconly-Light-Outline-Profile" transform="translate(33)">
    <g id="Profile-2" data-name="Profile" transform="translate(79.327 0)">
      <path id="Union_22" data-name="Union 22" d="M0,14.651c0-2.987,4.095-3.332,7.175-3.332,1.775,0,7.173,0,7.173,3.351,0,2.985-4.095,3.33-7.173,3.33C5.4,18,0,18,0,14.651Zm1.358,0c0,1.32,1.957,1.991,5.818,1.991s5.813-.664,5.813-1.972S11.034,12.68,7.175,12.68,1.358,13.342,1.358,14.651ZM7.145,9.619a4.823,4.823,0,1,1,.03,0ZM3.657,4.81A3.506,3.506,0,0,0,7.148,8.326l.027.647V8.326A3.516,3.516,0,1,0,3.657,4.81Z" transform="translate(0 0)"/>
    </g>
    <g transform="matrix(1, 0, 0, 1, -33, 0)" filter="url(#Union_29)">
      <path id="Union_29-2" data-name="Union 29" d="M10459.324-7777a6,6,0,0,1-6-6v-95a6,6,0,0,1,6-6h74l6.217-6,6.214,6h74.57a6,6,0,0,1,6,6v95a6,6,0,0,1-6,6Z" transform="translate(-10420.32 7916)" fill="#fff"/>
    </g>
    <g id="Group_15052" data-name="Group 15052" transform="translate(6.5 -1)">
      <g transform="matrix(1, 0, 0, 1, -39.5, 1)" filter="url(#Sign_out)">
        <text id="Sign_out-2" data-name="Sign out" transform="translate(49.5 122)" fill="#fa5050" font-size="14" font-family="Poppins-Medium, Poppins" font-weight="500"><tspan x="0" y="0">Sign out</tspan></text>
      </g>
      <g transform="matrix(1, 0, 0, 1, -39.5, 1)" filter="url(#Change_password)">
        <text id="Change_password-2" data-name="Change password" transform="translate(178.5 88)" fill="#888" font-size="14" font-family="Poppins-Medium, Poppins" font-weight="500"><tspan x="-129" y="0">Change password</tspan></text>
      </g>
      <g transform="matrix(1, 0, 0, 1, -39.5, 1)" filter="url(#Profile)">
        <text id="Profile-3" data-name="Profile" transform="translate(49.5 59)" fill="#888" font-size="14" font-family="Poppins-Medium, Poppins" font-weight="500"><tspan x="0" y="0">Profile</tspan></text>
      </g>
      <line id="Line_52" data-name="Line 52" x2="141" transform="translate(9.501 101.5)" fill="none" stroke="#f2f2f2" stroke-width="1"/>
    </g>
  </g>
</svg>
